<?xml version="1.0" encoding="UTF-8" standalone="no"?>
<!-- Created with Inkscape (http://www.inkscape.org/) -->

<svg
   width="450mm"
   height="600mm"
   viewBox="0 0 450 600"
   version="1.1"
   id="svg1"
   inkscape:version="1.4 (86a8ad7, 2024-10-11)"
   sodipodi:docname="SafePrototype3.svg"
   xmlns:inkscape="http://www.inkscape.org/namespaces/inkscape"
   xmlns:sodipodi="http://sodipodi.sourceforge.net/DTD/sodipodi-0.dtd"
   xmlns="http://www.w3.org/2000/svg"
   xmlns:svg="http://www.w3.org/2000/svg">
  <sodipodi:namedview
     id="namedview1"
     pagecolor="#ffffff"
     bordercolor="#000000"
     borderopacity="0.25"
     inkscape:showpageshadow="2"
     inkscape:pageopacity="0.0"
     inkscape:pagecheckerboard="0"
     inkscape:deskcolor="#d1d1d1"
     inkscape:document-units="mm"
     showguides="true"
     inkscape:zoom="0.36747685"
     inkscape:cx="515.67874"
     inkscape:cy="923.86771"
     inkscape:window-width="1920"
     inkscape:window-height="991"
     inkscape:window-x="-9"
     inkscape:window-y="-9"
     inkscape:window-maximized="1"
     inkscape:current-layer="layer1" />
  <defs
     id="defs1">
    <marker
       markerWidth="72.54835296"
       markerHeight="11.33858371"
       refX="36.274176"
       refY="5.6692916"
       orient="auto"
       id="marker10"
       viewBox="0 0 72.54835296 11.33858371"
       preserveAspectRatio="xMidYMid">
      <rect
         style="fill:#000000;fill-opacity:0.0156863;stroke:#000000;stroke-width:0.997648;stroke-miterlimit:4.5;stroke-dasharray:none;stroke-opacity:1"
         id="rect8"
         width="71.550705"
         height="10.340936"
         x="0.49882391"
         y="0.49882391"
         ry="0" />
    </marker>
  </defs>
  <g
     inkscape:label="Layer 1"
     inkscape:groupmode="layer"
     id="layer1"
     style="display:inline">
    <path
       d="m 130.54087,274.49229 v 2.70113 h -14.26166 v 0.004 h 14.27148 v -2.70113 h 16.44757 v -0.004 z m 30.72887,0 v 2.70113 h -14.26218 v 0.004 h 14.27148 v -2.70113 h 16.44758 v -0.004 z m 30.72836,0 v 2.70113 h -14.26166 v 0.004 h 14.27148 v -2.70113 h 16.44706 v -0.004 z m 30.72836,0 v 2.70113 h -14.26167 v 0.004 h 14.27149 v -2.70113 h 16.44705 v -0.004 z m 30.72887,0 v 2.70113 h -14.26218 v 0.004 h 14.27148 v -2.70113 h 16.44758 v -0.004 z m 30.72836,0 v 2.70113 h -14.26166 v 0.004 h 14.27148 v -2.70113 h 16.44705 v -0.004 z m 30.72835,0 v 2.70113 h -14.26166 v 0.004 h 14.27148 v -2.70113 h 16.44706 v -0.004 z m -168.21092,0.29869 v 2.69906 h 0.01 v -2.69906 z m 30.72836,0 v 2.69906 h 0.01 v -2.69906 z m 30.72887,0 v 2.69906 h 0.01 v -2.69906 z m 30.72836,0 v 2.69906 h 0.01 v -2.69906 z m 30.72836,0 v 2.69906 h 0.01 v -2.69906 z m 30.72887,0 v 2.69906 h 0.01 v -2.69906 z m 30.72836,0 v 2.69906 h 0.01 v -2.69906 z m -217.98049,2.40244 v 12.10365 h 2.97449 v 13.55473 h -2.97449 v 25.51937 h 2.97449 v 13.55266 h -2.97449 v 9.84178 h 2.88457 v -0.29507 h -2.5895 v -9.25009 h 2.97656 v -14.14642 h -2.97656 v -24.92561 h 2.97656 V 289.002 h -2.97656 v -11.51196 h 2.5957 v -0.29662 z m 218.28693,0 v 0.004 h 14.27148 v -0.004 z m 14.56862,0 v 0.29662 h 2.63446 v 9.25008 h -2.97449 v 14.14642 h 2.97449 v 24.92613 h -2.97449 v 14.14642 h 2.97449 v 11.51145 h -2.64066 v 0.29507 h 2.9378 v -12.10159 h -2.97449 v -13.55473 h 2.97449 v -25.51937 h -2.97449 v -13.55473 h 2.97449 v -9.84177 z m -199.24624,74.27712 v 2.70112 h 0.004 v -2.70112 z m 30.72836,0 v 2.70112 h 0.004 v -2.70112 z m 30.72887,0 v 2.70112 h 0.004 v -2.70112 z m 30.72836,0 v 2.70112 h 0.004 v -2.70112 z m 30.72836,0 v 2.70112 h 0.004 v -2.70112 z m 30.72887,0 v 2.70112 h 0.004 v -2.70112 z m 30.72836,0 v 2.70112 h 0.004 v -2.70112 z m -200.53143,0.29507 v 2.70113 h 0.004 v -2.70113 z m 30.72887,0 v 2.70113 h 0.004 v -2.70113 z m 30.72836,0 v 2.70113 h 0.004 v -2.70113 z m 30.72836,0 v 2.70113 h 0.004 v -2.70113 z m 30.72887,0 v 2.70113 h 0.004 v -2.70113 z m 30.72836,0 v 2.70113 h 0.004 v -2.70113 z m 30.72835,0 v 2.70113 h 0.004 v -2.70113 z"
       style="baseline-shift:baseline;display:inline;overflow:visible;vector-effect:none;stroke-miterlimit:4.5;enable-background:accumulate;stop-color:#000000;stop-opacity:1"
       id="path106" />
    <path
       d="m 143.65635,188.44741 c -2.94832,-1.2e-4 -5.34191,2.39348 -5.3418,5.34179 0.004,0.34548 0.0586,0.68727 0.12868,1.02527 h -7.5954 v -2.68356 h -14.86525 v 2.68356 h -0.0372 v 14.59962 h -2.94349 v 14.14642 h 2.94349 v 24.92561 h -2.94349 v 14.14694 h 2.94349 v 12.15792 h 0.0372 v 2.70113 h 14.86525 v -2.70113 h 15.86311 v 2.70113 h 14.86524 v -2.70113 h 15.86312 v 2.70113 h 14.86524 v -2.70113 h 15.86363 v 2.70113 h 14.86524 v -2.70113 h 15.86312 v 2.70113 h 14.86524 v -2.70113 h 15.86312 v 2.70113 h 14.86524 v -2.70113 h 15.86363 v 2.70113 H 315.219 v -2.70113 h 15.86312 v 2.70113 h 14.86524 v -3.06442 h -0.0253 v -11.79463 h 2.87682 v -14.14694 h -2.87682 v -24.92561 h 2.87682 v -14.14642 h -2.87682 v -14.21877 h 0.0253 v -3.06441 h -14.86524 v 2.68356 H 315.219 v -2.68356 h -14.86524 v 2.68356 h -15.86363 v -2.68356 h -14.86524 v 2.68356 H 148.86895 c 0.0702,-0.338 0.12544,-0.67979 0.12919,-1.02527 1.1e-4,-2.94831 -2.39347,-5.34191 -5.34179,-5.34179 z m 0,0.29456 c 2.78834,-1.1e-4 5.04476,2.25889 5.04465,5.04723 -0.004,0.38412 -0.0515,0.76525 -0.14263,1.13844 l -0.0444,0.18345 h 121.4081 v -2.68356 h 14.27148 v 2.68356 h 16.45687 v -2.68356 h 14.27148 v 2.68356 h 16.45688 v -2.68356 h 14.27148 v 2.47272 h -0.0253 v 14.80891 h 2.87889 v 13.55473 h -2.87889 v 25.51937 h 2.87889 v 13.55473 h -2.87889 v 12.38684 h 0.0253 v 2.4722 h -14.27148 v -2.70112 h -16.45688 v 2.70112 h -14.27148 v -2.70112 h -16.45687 v 2.70112 h -14.27148 v -2.70112 h -16.4574 v 2.70112 h -14.27148 v -2.70112 h -16.45687 v 2.70112 h -14.27149 v -2.70112 h -16.45687 v 2.70112 h -14.27148 v -2.70112 h -16.4574 v 2.70112 h -14.27148 v -2.70112 h -16.45687 v 2.70112 h -14.27148 v -2.70112 h -0.0372 v -12.15792 h -2.94504 v -13.55473 h 2.94504 v -25.51937 h -2.94504 v -13.55473 h 2.94504 v -14.59807 h 0.0372 v -2.68356 h 14.27148 v 2.68356 h 8.24807 l -0.045,-0.18345 c -0.0912,-0.37382 -0.13845,-0.75573 -0.14262,-1.1405 9.7e-4,-2.78742 2.2575,-5.04528 5.04517,-5.04517 z"
       style="stroke-miterlimit:4.5"
       id="path103" />
    <path
       d="m 33.558675,106.99812 v 14.63477 h -2.961059 v 14.15055 h 2.961059 v 24.92148 h -2.961059 v 14.15262 h 2.961059 v 12.24784 h 12.419914 v -2.92592 h 13.548527 v 2.92592 h 25.523507 v -2.92592 h 13.55111 v 2.92592 h 17.583937 v -2.13062 h -0.24029 l -0.0605,1.82986 H 98.90249 V 183.8787 H 84.749866 v 2.92592 H 59.827873 V 183.8787 H 45.677832 v 2.92592 h -11.8184 v -12.2499 h -2.958993 v -13.54904 h 2.958993 v -25.52351 h -2.958993 v -13.54853 h 2.958993 v -14.6327 h 11.8184 v 2.94298 h 14.150041 v -2.94298 h 24.921993 v 2.94298 H 98.90249 v -2.94298 h 16.98243 l 0.0605,3.21066 h 0.24029 v -3.51348 H 98.601733 v 2.94504 h -13.55111 v -2.94504 H 59.527116 v 2.94504 H 45.978589 v -2.94504 z"
       style="stroke-miterlimit:4.5"
       id="path111"
       sodipodi:nodetypes="ccccccccccccccccccccccccccccccccccccccccccccccccccccccccccccc" />
    <path
       id="rect3"
       style="display:inline;fill:none;stroke:#000000;stroke-width:0.296;stroke-miterlimit:4.5;stroke-dasharray:none;stroke-opacity:1"
       inkscape:label="Middle"
       d="M 236.51425 107.90452 L 236.51425 187.58493 L 269.77371 187.58493 L 269.77371 184.82644 L 284.34182 184.82644 L 284.34182 187.58493 L 300.50207 187.58493 L 300.50207 184.82644 L 315.07017 184.82644 L 315.07017 187.58493 L 331.23043 187.58493 L 331.23043 184.82644 L 345.77373 184.82644 L 345.77373 175.36501 L 348.65107 175.36501 L 348.65107 161.51469 L 345.77373 161.51469 L 345.77373 136.29246 L 348.65107 136.29246 L 348.65107 122.44214 L 345.77373 122.44214 L 345.77373 110.59893 L 331.23043 110.59893 L 331.23043 107.90452 L 315.07017 107.90452 L 315.07017 110.47181 L 300.50207 110.47181 L 300.50207 107.90452 L 284.34182 107.90452 L 284.34182 110.47181 L 269.77371 110.47181 L 269.77371 107.90452 L 236.51425 107.90452 z " />
    <rect
       style="display:inline;fill:none;stroke:#000000;stroke-width:0.296;stroke-miterlimit:4.5;stroke-dasharray:none;stroke-opacity:1"
       id="rect4"
       width="75.885529"
       height="24.885527"
       x="260.65509"
       y="116.63514"
       inkscape:label="Screen" />
    <rect
       style="display:inline;fill:none;stroke:#000000;stroke-width:0.296;stroke-miterlimit:4.5;stroke-dasharray:none;stroke-opacity:1"
       id="rect5"
       width="4.9666862"
       height="24.966686"
       x="275.888"
       y="149.9776"
       inkscape:label="KeysPins" />
    <rect
       style="display:inline;fill:none;stroke:#000000;stroke-width:0.296;stroke-miterlimit:4.5;stroke-dasharray:none;stroke-opacity:1"
       id="rect5-7"
       width="44.873451"
       height="39.873455"
       x="275.93463"
       y="143.5442"
       inkscape:label="Keys" />
    <ellipse
       style="fill:#000000;fill-opacity:0.0156863;stroke:#000000;stroke-width:0.251006;stroke-miterlimit:4.5;stroke-dasharray:none;stroke-opacity:1"
       id="path10"
       cx="245.20076"
       cy="123.11294"
       rx="2.3744974"
       ry="2.3744972" />
    <rect
       style="fill:#000000;fill-opacity:0.0156863;stroke:#000000;stroke-width:0.223996;stroke-miterlimit:4.5;stroke-dasharray:none;stroke-opacity:1"
       id="rect10"
       width="8.7760048"
       height="9.7760048"
       x="38.585896"
       y="160.12726" />
    <rect
       style="display:inline;fill:#000000;fill-opacity:0.0156863;stroke:#000000;stroke-width:0.241229;stroke-miterlimit:4.5;stroke-dasharray:none;stroke-opacity:1"
       id="rect28"
       width="4.2261205"
       height="2.9787714"
       x="141.54329"
       y="192.29868" />
    <circle
       style="fill:#000000;fill-opacity:0.0156863;stroke:#000000;stroke-width:0.296;stroke-miterlimit:4.5;stroke-dasharray:none;stroke-opacity:1"
       id="path28"
       cx="143.65636"
       cy="193.78807"
       r="3.24562" />
    <path
       d="m 141.38103,107.81047 v 3.29489 h 0.006 v 73.35935 h -0.006 v 3.29489 h 4.54081 v -2.94504 h 3.47679 v 2.7497 h 87.29855 v -79.67162 h -87.29855 v 2.73213 h -3.47679 v -2.8143 z m 0.34727,0.34985 h 3.84421 v 2.8143 h 4.17339 v -2.7342 h 86.6035 V 187.217 h -86.6035 v -2.75229 h -4.17339 v 2.94762 h -3.84421 v -2.59984 h 0.006 v -74.05491 h -0.006 z"
       style="stroke-miterlimit:4.5"
       id="path108" />
    <ellipse
       style="fill:#000000;fill-opacity:0.0156863;stroke:#000000;stroke-width:0.251006;stroke-miterlimit:4.5;stroke-dasharray:none;stroke-opacity:1"
       id="ellipse42"
       cx="245.20076"
       cy="116.09296"
       rx="2.3744974"
       ry="2.3744972" />
    <path
       id="path64"
       style="display:inline;fill:none;stroke:#000000;stroke-width:0.301274;stroke-miterlimit:4.5;stroke-dasharray:none;stroke-opacity:1"
       inkscape:label="RightSide"
       d="m 353.37045,186.85986 h 17.2837 v -2.92592 h 13.85031 v 2.92592 h 25.22275 v -2.92592 h 13.85032 v 2.92592 h 12.11967 v -12.24938 h 2.95951 v -13.85032 h -2.95951 v -25.22223 h 2.95951 v -13.85032 h -2.95951 v -14.63373 h -12.11967 v 2.94504 h -13.85032 v -2.94504 h -25.22275 v 2.94504 h -13.85031 v -2.94504 h -17.2837 v 14.6513 h 2.64686 v 13.85032 h -2.64686 v 25.22016 h 2.64686 v 13.8498 h -2.64686 z" />
    <path
       d="m 115.97638,351.47054 v 2.70112 h -0.0367 v 12.15843 h -2.94555 v 14.14643 h 2.94555 v 24.92561 h -2.94555 v 14.14694 h 2.94555 v 14.59962 h 0.0367 v 2.68356 h 14.8637 v -2.68356 h 7.59746 c -0.0702,0.338 -0.12544,0.67978 -0.12919,1.02526 v 0.002 c -1.1e-4,2.94832 2.39348,5.33985 5.3418,5.33973 2.94832,1.2e-4 5.3419,-2.39141 5.34179,-5.33973 v -0.002 c -0.004,-0.34548 -0.0586,-0.68726 -0.12868,-1.02526 H 269.6192 v 2.68356 h 14.86318 v -2.68356 h 15.86518 v 2.68356 h 14.86317 v -2.68356 h 15.86519 v 2.68356 h 14.86524 v -3.06493 h -0.0253 v -14.21825 h 2.87734 v -14.14694 h -2.87734 v -24.92561 h 2.87734 v -14.14643 h -2.87734 v -11.79514 h 0.0253 v -3.06441 h -14.86524 v 2.70112 h -15.86519 v -2.70112 h -14.86317 v 2.70112 h -15.86518 v -2.70112 H 269.6192 v 2.70112 h -15.86518 v -2.70112 h -14.86318 v 2.70112 h -15.86569 v -2.70112 h -14.86318 v 2.70112 h -15.86518 v -2.70112 h -14.86318 v 2.70112 h -15.86518 v -2.70112 h -14.86317 v 2.70112 h -15.86518 v -2.70112 z m 0.29508,0.29507 H 130.545 v 2.70113 h 16.45481 v -2.70113 h 14.27355 v 2.70113 h 16.45533 v -2.70113 h 14.27303 v 2.70113 h 16.45532 v -2.70113 h 14.27355 v 2.70113 h 16.45481 v -2.70113 h 14.27355 v 2.70113 h 16.45687 v -2.70113 h 14.27148 v 2.70113 h 16.45533 v -2.70113 h 14.27355 v 2.70113 h 16.45481 v -2.70113 h 14.27355 v 2.47272 h -0.0253 v 12.38684 h 2.87683 v 13.55473 h -2.87683 v 25.51937 h 2.87683 V 419.254 h -2.87683 v 14.80839 h 0.0253 v 2.47272 h -14.27355 v -2.68356 h -16.45481 v 2.68356 h -14.27355 v -2.68356 H 284.1873 v 2.68356 h -14.27148 v -2.68356 H 148.50773 l 0.0429,0.18346 c 0.0912,0.37382 0.14053,0.75624 0.1447,1.14101 1.1e-4,2.78834 -2.25632,5.04476 -5.04466,5.04465 -2.78834,1.1e-4 -5.04734,-2.25631 -5.04723,-5.04465 0.004,-0.38477 0.0535,-0.76719 0.14469,-1.14101 l 0.045,-0.18346 H 130.545 v 2.68356 h -14.27354 v -2.68356 h -0.0372 V 419.254 h -2.94297 v -13.55473 h 2.94297 V 380.1799 h -2.94297 v -13.55473 h 2.94297 v -12.15843 h 0.0372 z"
       style="stroke-miterlimit:4.5"
       id="path105" />
    <rect
       style="display:inline;fill:#000000;fill-opacity:0.0156863;stroke:#000000;stroke-width:0.241229;stroke-miterlimit:4.5;stroke-dasharray:none;stroke-opacity:1"
       id="rect65"
       width="4.2261205"
       height="2.9787714"
       x="141.53667"
       y="-436.66443"
       transform="scale(1,-1)" />
    <circle
       style="fill:#000000;fill-opacity:0.0156863;stroke:#000000;stroke-width:0.296;stroke-miterlimit:4.5;stroke-dasharray:none;stroke-opacity:1"
       id="circle65"
       cx="143.64973"
       cy="-435.17505"
       r="3.24562"
       transform="scale(1,-1)" />
    <path
       d="m 130.50573,107.7557 v 2.7559 h -14.56035 v 11.16211 h -2.95899 v 14.14849 h 2.95899 v 24.92561 h -2.95899 v 14.14694 h 2.95899 v 10.08001 h 14.56035 v 2.75745 h 7.6016 v -2.91972 h 3.2737 v -0.29507 h -3.56877 v 2.92023 h -7.00939 v -2.76003 H 116.242 v -10.08001 h -2.96054 v -13.55473 h 2.96054 v -25.5173 h -2.96054 v -13.55473 h 2.96054 v -11.16418 h 14.56087 v -2.75383 h 7.00939 v 2.88096 h 3.56877 v -0.29508 h -3.2737 v -2.88302 z"
       style="baseline-shift:baseline;display:inline;overflow:visible;vector-effect:none;stroke-miterlimit:4.5;enable-background:accumulate;stop-color:#000000"
       id="path110" />
    <rect
       style="display:inline;fill:none;fill-opacity:0.0156863;stroke:#000000;stroke-width:0.0811859;stroke-miterlimit:4.5"
       id="rect1"
       width="3.1388137"
       height="3.118814"
       x="227.53333"
       y="135.38283" />
    <rect
       style="display:inline;fill:none;fill-opacity:0.0156863;stroke:#000000;stroke-width:0.0811859;stroke-miterlimit:4.5"
       id="rect18"
       width="3.1388137"
       height="3.118814"
       x="227.53333"
       y="151.42001" />
    <rect
       style="display:inline;fill:none;fill-opacity:0.0156863;stroke:#000000;stroke-width:0.0811859;stroke-miterlimit:4.5"
       id="rect1-8"
       width="3.1388137"
       height="3.118814"
       x="231.31332"
       y="158.42284" />
    <rect
       style="display:inline;fill:none;fill-opacity:0.0156863;stroke:#000000;stroke-width:0.0811859;stroke-miterlimit:4.5"
       id="rect18-8"
       width="3.1388137"
       height="3.118814"
       x="231.31332"
       y="179.86002" />
    <path
       id="path27"
       style="baseline-shift:baseline;display:inline;overflow:visible;fill:none;stroke:#000000;stroke-width:0.1;stroke-miterlimit:4.5;stroke-dasharray:none;enable-background:accumulate;stop-color:#000000;stop-opacity:1"
       d="m 271.25973,119.35929 v 0.004 h -3.12694 c -8.5485,-0.17541 -8.11588,19.26962 0,19.26962 h 3.24579 v -0.0351 h 9.45007 v -3.20135 h -3.10007 v -12.83694 h 3.10007 v -3.19878 z"
       sodipodi:nodetypes="ccccccccccccc" />
    <path
       id="path27-5"
       style="baseline-shift:baseline;display:inline;overflow:visible;fill:none;stroke:#000000;stroke-width:0.1;stroke-miterlimit:4.5;stroke-dasharray:none;enable-background:accumulate;stop-color:#000000"
       d="m 307.2042,124.10844 h -0.004 v -4.18527 h -24.74129 v 4.30412 h 0.0351 v 9.45007 h 3.20135 v -3.10007 h 1.92646 l 0.0372,-7.9375 H 302.821 l -0.0342,7.9375 h 1.21715 v 3.10007 h 3.19878 z"
       sodipodi:nodetypes="ccccccccccccccccc" />
  </g>
</svg>
